<svg width="16" height="19" viewBox="0 0 16 19" fill="none" xmlns="http://www.w3.org/2000/svg">
    <path d="M7.71989 18.1649C8.20133 18.1631 8.66276 17.9711 9.00307 17.6306C9.34356 17.2901 9.53571 16.8288 9.5374 16.3474H5.90235C5.90404 16.8288 6.09621 17.2901 6.43668 17.6306C6.77701 17.9711 7.23842 18.1631 7.71985 18.1649H7.71989ZM14.2665 13.3565V13.3563C13.8556 12.9475 13.624 12.3921 13.6225 11.8123V7.71838C13.6225 6.48322 13.2346 5.27925 12.5136 4.2764C11.7925 3.27339 10.7746 2.52242 9.60369 2.12914C9.45291 2.08036 9.32151 1.98513 9.22797 1.85727C9.13442 1.72926 9.0838 1.57509 9.08319 1.4166C9.08826 1.05534 8.95318 0.706086 8.70654 0.442227C8.45975 0.178207 8.12049 0.0198724 7.7597 0.000651158C7.39151 -0.0107343 7.03457 0.127586 6.77024 0.384067C6.50576 0.640549 6.35667 0.993199 6.35682 1.36151V1.41659C6.35621 1.57507 6.30559 1.72923 6.21204 1.85726C6.1185 1.98512 5.9871 2.08036 5.83632 2.12913C4.66544 2.52239 3.64754 3.27338 2.92639 4.27639C2.2054 5.27924 1.81755 6.48317 1.81755 7.71837V11.8056C1.81601 12.3854 1.58445 12.9408 1.17348 13.3496L0.641902 13.8812C0.233569 14.2917 0.00307225 14.8462 0 15.4251H15.44C15.4369 14.8462 15.2064 14.2917 14.7981 13.8812L14.2665 13.3565Z" fill="#121212"/>
</svg>
